<svg width="430" height="100" viewBox="0 0 430 100" fill="none" xmlns="http://www.w3.org/2000/svg">
<g clip-path="url(#clip0)">
<path d="M91 5H1V95H91V5Z" fill="#738FC9"/>
<path d="M46 5.92H1.92001V50H46V5.92Z" fill="url(#paint0_linear)"/>
<path d="M68.0422 -16.1219L23.9612 27.9592L68.0422 72.0402L112.123 27.9592L68.0422 -16.1219Z" fill="url(#paint1_linear)"/>
<path d="M68.0415 27.9574L23.9605 72.0384L68.0415 116.119L112.123 72.0384L68.0415 27.9574Z" fill="url(#paint2_linear)"/>
<path d="M46 50H1.92001V94.08H46V50Z" fill="url(#paint3_linear)"/>
<path d="M11.68 41.13L15.24 39C17.7467 43.62 20.6467 45.93 23.94 45.93C25.3356 45.9333 26.7102 45.5897 27.94 44.93C29.1112 44.3351 30.0892 43.4195 30.76 42.29C31.4046 41.232 31.7502 40.0189 31.76 38.78C31.7295 37.2841 31.2293 35.8358 30.33 34.64C28.2713 32.0609 25.8494 29.7939 23.14 27.91C19.64 25.2433 17.4634 23.33 16.61 22.17C15.1728 20.3379 14.388 18.0786 14.38 15.75C14.3609 13.9961 14.8133 12.2692 15.69 10.75C16.5693 9.24566 17.8506 8.01629 19.39 7.2C20.9769 6.33041 22.7605 5.88279 24.57 5.9C26.5141 5.89182 28.4257 6.39904 30.11 7.37C32.2822 8.77854 34.1436 10.6161 35.58 12.77L32.16 15.37C31.0775 13.768 29.7239 12.367 28.16 11.23C27.0612 10.5696 25.802 10.2237 24.52 10.23C23.7602 10.2011 23.0021 10.3232 22.2898 10.5893C21.5774 10.8554 20.9249 11.2601 20.37 11.78C19.848 12.2612 19.4344 12.8481 19.1568 13.5016C18.8791 14.1551 18.7439 14.8602 18.76 15.57C18.7602 16.4837 18.9545 17.387 19.33 18.22C19.8237 19.2571 20.4975 20.1983 21.32 21C21.8734 21.5333 23.68 22.93 26.74 25.19C30.37 27.88 32.87 30.26 34.22 32.36C35.4878 34.2196 36.1831 36.4097 36.22 38.66C36.2278 40.1499 35.924 41.6251 35.3281 42.9907C34.7323 44.3563 33.8575 45.5823 32.76 46.59C31.6558 47.6924 30.3417 48.5622 28.8954 49.1479C27.4492 49.7336 25.9002 50.0234 24.34 50C21.8826 50.0366 19.4701 49.3403 17.41 48C14.9779 46.218 13.0121 43.8749 11.68 41.17" fill="white"/>
<path d="M57.36 5.92H61.76V45.74H78.72V50H57.36V5.92Z" fill="white"/>
<path d="M24.63 50L45.19 94.08H40.43L33.5 79.58H14.5L7.64001 94.08H2.73001L23.55 50H24.63ZM24.08 59.37L16.52 75.32H31.59L24.08 59.37Z" fill="white"/>
<path d="M48.52 50H53.31L67.92 84.06L82.77 50H87.56L68.39 94.08H67.43L48.52 50Z" fill="white"/>
<path d="M102 9.94H105.8V30.05H102V9.94Z" fill="#535B66"/>
<path d="M109.19 15.18H112.93V16.7C113.615 16.0879 114.391 15.5854 115.23 15.21C115.899 14.933 116.616 14.7902 117.34 14.79C118.038 14.7786 118.73 14.9102 119.375 15.1768C120.02 15.4434 120.604 15.8393 121.09 16.34C121.554 16.8674 121.909 17.4823 122.132 18.1487C122.355 18.815 122.443 19.5192 122.39 20.22V30.05H118.7V23.54C118.748 22.3548 118.668 21.1678 118.46 20C118.337 19.4774 118.045 19.01 117.63 18.67C117.207 18.3537 116.688 18.1914 116.16 18.21C115.802 18.2024 115.447 18.2657 115.114 18.3961C114.781 18.5265 114.477 18.7216 114.22 18.97C113.639 19.5388 113.244 20.2714 113.09 21.07C112.947 22.0632 112.894 23.0672 112.93 24.07V30.07H109.19V15.18Z" fill="#535B66"/>
<path d="M134.4 17.25L132.09 19.57C131.451 18.7935 130.538 18.2923 129.54 18.17C129.186 18.1481 128.835 18.243 128.54 18.44C128.444 18.5053 128.364 18.5905 128.305 18.6898C128.245 18.789 128.208 18.9 128.196 19.015C128.184 19.13 128.196 19.2464 128.233 19.356C128.27 19.4656 128.331 19.5659 128.41 19.65C128.743 19.9393 129.122 20.1724 129.53 20.34L130.89 21.03C132.045 21.5107 133.072 22.2537 133.89 23.2C134.515 24.0971 134.793 25.1903 134.674 26.2769C134.554 27.3636 134.045 28.3701 133.24 29.11C132.156 30.0311 130.761 30.5032 129.34 30.43C128.332 30.4614 127.332 30.2465 126.425 29.8039C125.519 29.3613 124.735 28.7043 124.14 27.89L126.44 25.39C126.879 25.896 127.408 26.3164 128 26.63C128.475 26.9097 129.01 27.0709 129.56 27.1C129.986 27.12 130.406 26.9929 130.75 26.74C130.886 26.6503 130.998 26.5288 131.077 26.3859C131.155 26.2429 131.198 26.083 131.2 25.92C131.2 25.3467 130.66 24.7867 129.58 24.24L128.32 23.61C125.913 22.3967 124.71 20.88 124.71 19.06C124.693 18.4873 124.8 17.9177 125.022 17.3898C125.245 16.8619 125.578 16.3879 126 16C126.958 15.1539 128.203 14.7067 129.48 14.75C130.427 14.7503 131.361 14.9693 132.21 15.39C133.08 15.8235 133.831 16.4618 134.4 17.25V17.25Z" fill="#535B66"/>
<path d="M137.51 9.69H141.24V15.18H143.46V18.39H141.24V30.05H137.51V18.39H135.6V15.18H137.51V9.69Z" fill="#535B66"/>
<path d="M144 15.18H147.82L151.68 24.51L155.94 15.18H159.77L150.45 35.49H146.6L149.66 28.94L144 15.18Z" fill="#535B66"/>
<path d="M162.32 9.69H166.05V15.18H168.26V18.39H166.05V30.05H162.32V18.39H160.4V15.18H162.32V9.69Z" fill="#535B66"/>
<path d="M169.65 15.18H173.42V22.34C173.374 23.319 173.471 24.2994 173.71 25.25C173.877 25.7561 174.199 26.1969 174.63 26.51C175.093 26.8203 175.643 26.9777 176.2 26.96C176.762 26.9745 177.315 26.8213 177.79 26.52C178.256 26.2023 178.606 25.7429 178.79 25.21C179 24.3094 179.081 23.3834 179.03 22.46V15.18H182.76V21.48C182.866 23.2792 182.657 25.0832 182.14 26.81C181.693 27.9102 180.923 28.8484 179.93 29.5C178.804 30.1583 177.513 30.481 176.21 30.43C174.794 30.5057 173.392 30.1235 172.21 29.34C171.184 28.5848 170.436 27.513 170.08 26.29C169.719 24.6764 169.574 23.0218 169.65 21.37V15.18Z" fill="#535B66"/>
<path d="M186.29 9.69H190V15.18H192.21V18.39H190V30.05H186.27V18.39H184.35V15.18H186.27L186.29 9.69Z" fill="#535B66"/>
<path d="M211.63 12.67L208.79 15.18C207.79 13.79 206.79 13.1 205.79 13.1C205.345 13.0801 204.908 13.2222 204.56 13.5C204.416 13.6051 204.298 13.7417 204.215 13.8994C204.131 14.0571 204.085 14.2318 204.08 14.41C204.072 14.773 204.192 15.1272 204.42 15.41C205.28 16.3389 206.206 17.2044 207.19 18C208.65 19.22 209.54 20 209.85 20.31C210.521 20.9631 211.079 21.7236 211.5 22.56C211.825 23.3005 211.988 24.1015 211.98 24.91C212.002 25.6727 211.861 26.4313 211.566 27.135C211.272 27.8387 210.829 28.4712 210.27 28.99C209.056 30.0981 207.452 30.6806 205.81 30.61C204.485 30.642 203.181 30.2725 202.07 29.55C200.883 28.712 199.941 27.5729 199.34 26.25L202.55 24.3C203.517 26.08 204.63 26.97 205.89 26.97C206.494 26.9887 207.085 26.786 207.55 26.4C207.754 26.2427 207.92 26.0415 208.036 25.8113C208.152 25.5811 208.215 25.3277 208.22 25.07C208.202 24.572 208.027 24.0924 207.72 23.7C207.045 22.9302 206.295 22.23 205.48 21.61C203.89 20.4274 202.464 19.0386 201.24 17.48C200.624 16.6316 200.275 15.6181 200.24 14.57C200.235 13.893 200.374 13.2228 200.648 12.6038C200.923 11.9848 201.325 11.4313 201.83 10.98C202.895 9.98123 204.31 9.44231 205.77 9.48C206.769 9.48257 207.752 9.7225 208.64 10.18C209.781 10.8193 210.795 11.6634 211.63 12.67V12.67Z" fill="#535B66"/>
<path d="M214.25 9.42999H218V30.05H214.27L214.25 9.42999Z" fill="#535B66"/>
<path d="M231.84 15.18H235.57V30.05H231.84V28.48C231.205 29.1059 230.463 29.6138 229.65 29.98C228.89 30.2843 228.078 30.4372 227.26 30.43C226.316 30.4377 225.38 30.2426 224.518 29.8579C223.655 29.4732 222.885 28.9078 222.26 28.2C220.854 26.6964 220.099 24.6978 220.16 22.64C220.072 20.5721 220.789 18.5505 222.16 17C222.777 16.2971 223.539 15.7358 224.394 15.3543C225.248 14.9729 226.174 14.7804 227.11 14.79C227.973 14.7852 228.827 14.9588 229.62 15.3C230.435 15.662 231.171 16.1781 231.79 16.82L231.84 15.18ZM227.92 18.24C227.374 18.2203 226.83 18.3191 226.326 18.5297C225.822 18.7403 225.37 19.0577 225 19.46C224.226 20.3184 223.817 21.4448 223.86 22.6C223.813 23.7683 224.23 24.9078 225.02 25.77C225.388 26.1728 225.838 26.4913 226.34 26.7036C226.843 26.9159 227.385 27.017 227.93 27C228.475 27.0144 229.016 26.9121 229.518 26.6999C230.02 26.4878 230.471 26.1707 230.84 25.77C231.235 25.3397 231.541 24.8354 231.74 24.2861C231.939 23.7369 232.028 23.1536 232 22.57C232.026 21.9942 231.937 21.4189 231.738 20.878C231.538 20.3371 231.233 19.8414 230.84 19.42C230.463 19.0301 230.008 18.7237 229.505 18.5204C229.002 18.3172 228.462 18.2216 227.92 18.24V18.24Z" fill="#535B66"/>
<path d="M237 15.18H240.66L243.66 23.64L246.88 15.18H249.11L252.27 23.54L255.27 15.18H258.94L253.52 30.05H251.15L247.98 21.58L244.71 30.05H242.37L237 15.18Z" fill="#535B66"/>
<path d="M261.93 9.04999C262.244 9.04753 262.554 9.10925 262.843 9.23135C263.132 9.35345 263.393 9.53335 263.61 9.75999C264.057 10.2192 264.306 10.8345 264.306 11.475C264.306 12.1155 264.057 12.7308 263.61 13.19C263.392 13.415 263.131 13.5939 262.842 13.716C262.554 13.8382 262.243 13.9011 261.93 13.9011C261.617 13.9011 261.306 13.8382 261.018 13.716C260.729 13.5939 260.468 13.415 260.25 13.19C260.02 12.9633 259.838 12.6922 259.716 12.393C259.594 12.0939 259.534 11.773 259.54 11.45C259.536 11.1371 259.596 10.8267 259.717 10.5378C259.837 10.2489 260.015 9.98767 260.24 9.76999C260.456 9.53835 260.717 9.35457 261.009 9.23054C261.3 9.10651 261.614 9.045 261.93 9.04999V9.04999ZM260.06 15.18H263.79V30.05H260.06V15.18Z" fill="#535B66"/>
<path d="M275.77 17.25L273.46 19.57C272.817 18.7929 271.901 18.2918 270.9 18.17C270.546 18.1481 270.195 18.243 269.9 18.44C269.794 18.5144 269.706 18.6131 269.645 18.7278C269.585 18.8426 269.552 18.9701 269.55 19.1C269.549 19.3049 269.628 19.5021 269.77 19.65C270.105 19.937 270.483 20.1698 270.89 20.34L272.26 21.03C273.416 21.5088 274.443 22.252 275.26 23.2C275.885 24.0971 276.163 25.1903 276.044 26.2769C275.924 27.3635 275.415 28.3701 274.61 29.11C273.526 30.0311 272.131 30.5032 270.71 30.43C269.702 30.4614 268.702 30.2465 267.795 29.8039C266.889 29.3613 266.105 28.7043 265.51 27.89L267.81 25.39C268.243 25.8941 268.765 26.3144 269.35 26.63C269.825 26.9086 270.36 27.0697 270.91 27.1C271.336 27.1217 271.757 26.9944 272.1 26.74C272.238 26.6515 272.352 26.5304 272.432 26.3874C272.513 26.2444 272.556 26.0839 272.56 25.92C272.56 25.35 272.01 24.79 270.93 24.24L269.67 23.61C267.223 22.4033 266 20.8867 266 19.06C266.001 18.4921 266.122 17.9308 266.357 17.4135C266.591 16.8962 266.933 16.4348 267.36 16.06C268.318 15.2139 269.563 14.7667 270.84 14.81C271.792 14.8076 272.732 15.029 273.583 15.4563C274.434 15.8836 275.173 16.5048 275.74 17.27L275.77 17.25Z" fill="#535B66"/>
<path d="M278.88 9.69H282.61V15.18H284.82V18.39H282.61V30.05H278.88V18.39H277V15.18H278.92L278.88 9.69Z" fill="#535B66"/>
<path d="M285.33 15.18H289.15L293 24.51L297.27 15.18H301.09L291.77 35.49H287.92L291 28.94L285.33 15.18Z" fill="#535B66"/>
<path d="M302.5 9.42999H306.23V21.31L311.72 15.18H316.41L310 22.31L317.18 30.05H312.54L306.23 23.2V30.05H302.5V9.42999Z" fill="#535B66"/>
<path d="M319.94 9.05C320.254 9.04754 320.564 9.10925 320.853 9.23135C321.142 9.35345 321.403 9.53335 321.62 9.76C322.067 10.2192 322.316 10.8345 322.316 11.475C322.316 12.1155 322.067 12.7308 321.62 13.19C321.406 13.4147 321.149 13.5929 320.863 13.7134C320.577 13.8338 320.27 13.894 319.96 13.89C319.642 13.8951 319.327 13.8338 319.034 13.7098C318.741 13.5858 318.478 13.4019 318.26 13.17C318.032 12.9425 317.852 12.671 317.731 12.3719C317.611 12.0728 317.553 11.7523 317.56 11.43C317.554 11.1177 317.613 10.8076 317.731 10.5187C317.85 10.2298 318.026 9.96817 318.25 9.75C318.467 9.52198 318.73 9.34192 319.021 9.22137C319.312 9.10082 319.625 9.04245 319.94 9.05V9.05ZM318.07 15.18H321.8V30.05H318.07V15.18Z" fill="#535B66"/>
<path d="M101.83 40.17H104.83C105.998 40.1272 107.167 40.2009 108.32 40.39C109.146 40.5871 109.887 41.0467 110.43 41.7C110.994 42.4043 111.285 43.2884 111.25 44.19C111.283 45.085 111 45.963 110.45 46.67C109.888 47.3536 109.107 47.8232 108.24 48C106.975 48.2133 105.692 48.297 104.41 48.25H103.33V55.25H101.83V40.17ZM103.33 41.65V46.76H105.89C106.654 46.7983 107.419 46.7036 108.15 46.48C108.614 46.3053 109.01 45.9863 109.28 45.57C109.551 45.1501 109.694 44.6599 109.69 44.16C109.691 43.6698 109.548 43.1901 109.28 42.78C109.025 42.3723 108.647 42.0569 108.2 41.88C107.487 41.6677 106.743 41.5797 106 41.62L103.33 41.65Z" fill="#535B66"/>
<path d="M118.05 43.81C118.854 43.7908 119.653 43.9473 120.39 44.2685C121.128 44.5898 121.786 45.068 122.32 45.67C123.327 46.7872 123.877 48.2418 123.862 49.7456C123.848 51.2494 123.269 52.6928 122.24 53.79C121.691 54.3448 121.038 54.7853 120.318 55.0859C119.598 55.3865 118.825 55.5413 118.045 55.5413C117.265 55.5413 116.492 55.3865 115.772 55.0859C115.052 54.7853 114.399 54.3448 113.85 53.79C112.827 52.6939 112.252 51.2547 112.237 49.7555C112.222 48.2564 112.769 46.806 113.77 45.69C114.301 45.0804 114.96 44.5957 115.699 44.2707C116.439 43.9457 117.242 43.7884 118.05 43.81V43.81ZM118.05 45.21C117.477 45.2068 116.91 45.3235 116.384 45.5525C115.859 45.7816 115.388 46.1179 115 46.54C114.58 46.9589 114.25 47.4584 114.028 48.0083C113.807 48.5582 113.698 49.1472 113.71 49.74C113.709 50.5284 113.912 51.3036 114.3 51.99C114.667 52.6653 115.214 53.2259 115.88 53.61C116.551 53.9839 117.307 54.1802 118.075 54.1802C118.843 54.1802 119.599 53.9839 120.27 53.61C120.924 53.2244 121.459 52.6677 121.82 52C122.208 51.3136 122.411 50.5384 122.41 49.75C122.422 49.1572 122.313 48.5682 122.092 48.0183C121.87 47.4684 121.54 46.9689 121.12 46.55C120.724 46.1188 120.242 45.7764 119.704 45.5454C119.166 45.3144 118.585 45.2001 118 45.21H118.05Z" fill="#535B66"/>
<path d="M125.9 39.79H127.33V55.25H125.9V39.79Z" fill="#535B66"/>
<path d="M135.62 45.32L134.7 46.32C134.126 45.6654 133.318 45.263 132.45 45.2C132.006 45.1936 131.576 45.3583 131.25 45.66C131.095 45.7944 130.97 45.9602 130.884 46.1463C130.798 46.3325 130.752 46.5349 130.75 46.74C130.769 47.1103 130.914 47.463 131.16 47.74C131.663 48.2317 132.249 48.6311 132.89 48.92C133.72 49.2914 134.463 49.8331 135.07 50.51C135.437 51.0232 135.633 51.639 135.63 52.27C135.632 52.7062 135.544 53.1381 135.372 53.539C135.2 53.9398 134.948 54.301 134.63 54.6C134.311 54.9125 133.932 55.1577 133.517 55.3209C133.101 55.4841 132.656 55.562 132.21 55.55C131.573 55.5514 130.944 55.4078 130.37 55.13C129.834 54.8607 129.366 54.4746 129 54L129.9 53C130.174 53.3657 130.524 53.6672 130.927 53.8831C131.329 54.0991 131.774 54.2243 132.23 54.25C132.774 54.2619 133.302 54.061 133.7 53.69C133.872 53.5465 134.014 53.3704 134.117 53.172C134.221 52.9736 134.284 52.7566 134.304 52.5336C134.323 52.3106 134.298 52.086 134.231 51.8726C134.163 51.6591 134.054 51.4612 133.91 51.29C133.372 50.7572 132.746 50.3208 132.06 50C131.273 49.6552 130.57 49.1434 130 48.5C129.64 47.9918 129.451 47.3825 129.46 46.76C129.449 46.367 129.521 45.9761 129.671 45.6127C129.821 45.2492 130.045 44.9213 130.33 44.65C130.62 44.3701 130.963 44.1514 131.34 44.0071C131.716 43.8628 132.117 43.7957 132.52 43.81C133.712 43.8839 134.827 44.4268 135.62 45.32Z" fill="#535B66"/>
<path d="M137.68 39.79H139.11V48.6L144.28 44.1H146.39L140.26 49.42L146.75 55.25H144.75L139.13 50.25V55.25H137.7L137.68 39.79Z" fill="#535B66"/>
<path d="M148.56 39.5C148.855 39.5272 149.13 39.6638 149.33 39.883C149.53 40.1022 149.641 40.3882 149.641 40.685C149.641 40.9817 149.53 41.2678 149.33 41.487C149.13 41.7062 148.855 41.8428 148.56 41.87C148.407 41.8709 148.255 41.8403 148.114 41.7801C147.973 41.7199 147.845 41.6314 147.74 41.52C147.629 41.4111 147.541 41.2811 147.481 41.1378C147.421 40.9944 147.39 40.8405 147.39 40.685C147.39 40.5295 147.421 40.3756 147.481 40.2322C147.541 40.0888 147.629 39.9589 147.74 39.85C147.845 39.7386 147.973 39.6501 148.114 39.5899C148.255 39.5297 148.407 39.4991 148.56 39.5ZM147.85 44.1H149.29V55.25H147.85V44.1Z" fill="#535B66"/>
<path d="M161.19 51.55L162.4 52.19C162.052 52.897 161.578 53.5343 161 54.07C160.489 54.5452 159.891 54.9186 159.24 55.17C158.535 55.4232 157.79 55.5485 157.04 55.54C156.239 55.5819 155.44 55.4428 154.7 55.1329C153.961 54.8229 153.301 54.3503 152.77 53.75C151.821 52.6789 151.277 51.309 151.233 49.8784C151.189 48.4479 151.648 47.0472 152.53 45.92C153.049 45.2328 153.726 44.6819 154.505 44.3143C155.284 43.9468 156.14 43.7738 157 43.81C157.877 43.7867 158.746 43.9733 159.536 44.3543C160.325 44.7352 161.013 45.2995 161.54 46C162.376 47.0944 162.811 48.4432 162.77 49.82H152.77C152.749 50.9999 153.191 52.1412 154 53C154.385 53.4067 154.851 53.7281 155.367 53.9434C155.884 54.1587 156.44 54.2632 157 54.25C157.567 54.2503 158.129 54.1487 158.66 53.95C159.161 53.7724 159.625 53.5046 160.03 53.16C160.497 52.6863 160.889 52.1432 161.19 51.55V51.55ZM161.19 48.55C161.046 47.8851 160.763 47.258 160.36 46.71C159.967 46.2303 159.467 45.85 158.9 45.6C158.306 45.3209 157.657 45.1775 157 45.18C155.96 45.1647 154.952 45.5433 154.18 46.24C153.536 46.871 153.085 47.6722 152.88 48.55H161.19Z" fill="#535B66"/>
<path d="M164.67 44.1H166.12V56.93C166.166 57.6325 165.991 58.3319 165.62 58.93C165.456 59.1391 165.244 59.3062 165.002 59.4174C164.76 59.5287 164.496 59.581 164.23 59.57C163.667 59.5535 163.111 59.4349 162.59 59.22V58C162.895 58.1774 163.238 58.2801 163.59 58.3C163.767 58.3095 163.942 58.2684 164.096 58.1816C164.25 58.0949 164.377 57.9659 164.46 57.81C164.615 57.4021 164.676 56.9647 164.64 56.53L164.67 44.1ZM165.38 39.5C165.653 39.5003 165.917 39.595 166.128 39.768C166.338 39.9411 166.483 40.1818 166.536 40.4492C166.589 40.7166 166.548 40.9942 166.42 41.2349C166.292 41.4755 166.084 41.6643 165.833 41.7692C165.581 41.8741 165.301 41.8886 165.039 41.8102C164.778 41.7318 164.552 41.5653 164.4 41.3392C164.248 41.113 164.178 40.841 164.204 40.5696C164.229 40.2981 164.348 40.0438 164.54 39.85C164.648 39.7371 164.779 39.6478 164.924 39.5875C165.068 39.5273 165.223 39.4975 165.38 39.5Z" fill="#535B66"/>
<path d="M180.27 40.17L187.27 55.25H185.65L183.27 50.25H176.78L174.43 55.25H172.74L179.87 40.17H180.27ZM180.08 43.37L177.49 48.83H182.65L180.08 43.37Z" fill="#535B66"/>
<path d="M188.87 39.79H190.31V48.6L195.48 44.1H197.59L191.46 49.42L198 55.25H196L190.39 50.25V55.25H188.95L188.87 39.79Z" fill="#535B66"/>
<path d="M209.3 44.1V55.25H207.88V53.33C207.343 54.0228 206.66 54.5894 205.88 54.99C205.112 55.3572 204.271 55.5453 203.42 55.54C202.671 55.5442 201.929 55.3936 201.24 55.0976C200.552 54.8017 199.932 54.3667 199.42 53.82C198.873 53.2722 198.442 52.6196 198.154 51.9014C197.865 51.1831 197.724 50.4139 197.74 49.64C197.73 48.8749 197.875 48.1157 198.165 47.4078C198.456 46.6999 198.886 46.0578 199.43 45.52C199.955 44.9707 200.587 44.5354 201.287 44.2412C201.987 43.947 202.741 43.8002 203.5 43.81C204.365 43.7956 205.22 43.9948 205.99 44.39C206.769 44.8162 207.436 45.419 207.94 46.15V44.15L209.3 44.1ZM203.56 45.19C202.784 45.186 202.021 45.3897 201.35 45.78C200.672 46.1755 200.115 46.7497 199.74 47.44C199.347 48.1247 199.14 48.9005 199.14 49.69C199.14 50.4795 199.347 51.2552 199.74 51.94C200.124 52.6351 200.687 53.2151 201.37 53.62C202.028 54.016 202.782 54.2235 203.55 54.22C204.336 54.2201 205.109 54.0131 205.79 53.62C206.473 53.2445 207.034 52.6826 207.41 52C207.797 51.3032 207.993 50.5168 207.98 49.72C207.995 49.1217 207.889 48.5265 207.669 47.9698C207.45 47.4132 207.12 46.9065 206.7 46.48C206.294 46.0603 205.805 45.729 205.265 45.507C204.724 45.285 204.144 45.1771 203.56 45.19V45.19Z" fill="#535B66"/>
<path d="M223.11 39.79V55.25H221.69V53.33C221.153 54.0228 220.47 54.5894 219.69 54.99C218.922 55.3572 218.081 55.5453 217.23 55.54C216.48 55.546 215.738 55.3963 215.049 55.1002C214.361 54.8041 213.741 54.3681 213.23 53.82C212.683 53.2722 212.252 52.6196 211.964 51.9014C211.675 51.1831 211.534 50.4139 211.55 49.64C211.538 48.8746 211.681 48.1147 211.972 47.4065C212.262 46.6982 212.694 46.0564 213.24 45.52C213.765 44.9707 214.397 44.5354 215.097 44.2412C215.797 43.947 216.551 43.8002 217.31 43.81C218.175 43.7956 219.03 43.9948 219.8 44.39C220.579 44.8162 221.246 45.419 221.75 46.15V39.79H223.11ZM217.37 45.19C216.588 45.1852 215.819 45.3918 215.145 45.7879C214.471 46.1839 213.917 46.7547 213.54 47.44C213.154 48.1272 212.951 48.9019 212.95 49.69C212.951 50.4794 213.158 51.2549 213.55 51.94C213.927 52.6368 214.487 53.2176 215.17 53.62C215.832 54.0149 216.589 54.2223 217.36 54.22C218.143 54.2211 218.913 54.0141 219.59 53.62C220.278 53.2478 220.844 52.6854 221.22 52C221.599 51.3006 221.792 50.5154 221.78 49.72C221.797 49.1223 221.693 48.5274 221.475 47.9707C221.257 47.414 220.928 46.907 220.51 46.48C220.103 46.0612 219.614 45.7306 219.074 45.5087C218.534 45.2868 217.954 45.1783 217.37 45.19V45.19Z" fill="#535B66"/>
<path d="M235.21 51.55L236.42 52.19C236.081 52.8946 235.617 53.5317 235.05 54.07C234.539 54.5452 233.941 54.9186 233.29 55.17C232.585 55.4232 231.84 55.5485 231.09 55.54C230.289 55.5819 229.49 55.4428 228.75 55.1329C228.011 54.8229 227.351 54.3502 226.82 53.75C225.871 52.6789 225.327 51.309 225.283 49.8784C225.239 48.4479 225.698 47.0472 226.58 45.92C227.094 45.2399 227.764 44.6933 228.533 44.3261C229.302 43.9589 230.148 43.7819 231 43.81C231.88 43.7843 232.753 43.9697 233.546 44.3508C234.34 44.7318 235.03 45.2973 235.56 46C236.396 47.0944 236.831 48.4432 236.79 49.82H226.79C226.764 50.9971 227.198 52.138 228 53C228.385 53.4067 228.851 53.7281 229.367 53.9434C229.884 54.1587 230.44 54.2632 231 54.25C231.567 54.2503 232.129 54.1486 232.66 53.95C233.161 53.7724 233.625 53.5046 234.03 53.16C234.504 52.6877 234.902 52.1445 235.21 51.55V51.55ZM235.21 48.55C235.066 47.885 234.783 47.258 234.38 46.71C233.987 46.2303 233.487 45.85 232.92 45.6C232.326 45.3209 231.677 45.1774 231.02 45.18C229.98 45.1647 228.972 45.5433 228.2 46.24C227.556 46.871 227.105 47.6722 226.9 48.55H235.21Z" fill="#535B66"/>
<path d="M238.87 44.1H240.3V46C240.705 45.3831 241.228 44.8529 241.84 44.44C242.53 44.0189 243.322 43.7942 244.13 43.79C244.66 43.7898 245.184 43.8988 245.67 44.11C246.125 44.2973 246.531 44.5844 246.86 44.95C247.222 45.4003 247.494 45.9165 247.66 46.47C248.078 45.6631 248.694 44.9751 249.45 44.47C250.139 44.0274 250.941 43.7915 251.76 43.79C252.469 43.7827 253.165 43.9844 253.76 44.37C254.369 44.7619 254.844 45.3307 255.12 46C255.455 47.0113 255.601 48.0758 255.55 49.14V55.23H254.08V49.16C254.126 48.332 254.042 47.5019 253.83 46.7C253.661 46.2516 253.353 45.8694 252.95 45.61C252.512 45.3299 252 45.1872 251.48 45.2C250.794 45.1985 250.125 45.4156 249.57 45.82C248.994 46.2268 248.555 46.7986 248.31 47.46C247.984 48.5692 247.849 49.7256 247.91 50.88V55.25H246.47V49.54C246.518 48.6194 246.434 47.6967 246.22 46.8C246.063 46.3293 245.758 45.9222 245.35 45.64C244.911 45.3431 244.39 45.1894 243.86 45.2C243.193 45.2025 242.543 45.4121 242 45.8C241.42 46.1985 240.974 46.7633 240.72 47.42C240.39 48.4221 240.248 49.4763 240.3 50.53V55.25H238.87V44.1Z" fill="#535B66"/>
<path d="M258.73 39.5C259.008 39.496 259.28 39.589 259.497 39.763C259.714 39.9369 259.864 40.1811 259.922 40.4536C259.979 40.7261 259.939 41.01 259.81 41.2567C259.681 41.5034 259.47 41.6974 259.213 41.8056C258.957 41.9138 258.671 41.9294 258.404 41.8497C258.137 41.7701 257.906 41.6001 257.751 41.3689C257.596 41.1378 257.526 40.8598 257.553 40.5827C257.58 40.3056 257.703 40.0466 257.9 39.85C258.007 39.7383 258.136 39.6497 258.279 39.5895C258.422 39.5294 258.575 39.4989 258.73 39.5V39.5ZM258 44.1H259.44V55.25H258V44.1Z" fill="#535B66"/>
<path d="M262.68 39.5C262.958 39.496 263.23 39.589 263.447 39.763C263.664 39.9369 263.814 40.1811 263.872 40.4536C263.929 40.7261 263.889 41.01 263.76 41.2567C263.631 41.5034 263.42 41.6974 263.163 41.8056C262.907 41.9138 262.621 41.9294 262.354 41.8497C262.087 41.7701 261.856 41.6001 261.701 41.3689C261.546 41.1378 261.476 40.8598 261.503 40.5827C261.53 40.3056 261.653 40.0466 261.85 39.85C261.957 39.7383 262.086 39.6497 262.229 39.5895C262.372 39.5294 262.525 39.4989 262.68 39.5V39.5ZM262 44.1H263.44V55.25H262V44.1Z" fill="#535B66"/>
<path d="M271.39 55.25V40.17H271.72L281.72 51.73V40.17H283.21V55.25H282.87L273 43.83V55.25H271.39Z" fill="#535B66"/>
<path d="M297.32 44.1V55.25H295.91V53.33C295.369 54.0191 294.687 54.5849 293.91 54.99C293.142 55.3572 292.301 55.5453 291.45 55.54C290.701 55.5442 289.959 55.3936 289.27 55.0976C288.582 54.8017 287.962 54.3667 287.45 53.82C286.903 53.2722 286.472 52.6196 286.184 51.9014C285.895 51.1831 285.754 50.4139 285.77 49.64C285.76 48.8749 285.905 48.1157 286.195 47.4078C286.486 46.6999 286.916 46.0578 287.46 45.52C287.985 44.9707 288.617 44.5354 289.317 44.2412C290.017 43.947 290.771 43.8002 291.53 43.81C292.395 43.7956 293.25 43.9948 294.02 44.39C294.814 44.8135 295.499 45.4161 296.02 46.15V44.15L297.32 44.1ZM291.58 45.19C290.799 45.1838 290.031 45.3899 289.359 45.7862C288.686 46.1825 288.133 46.7541 287.76 47.44C287.367 48.1247 287.16 48.9005 287.16 49.69C287.16 50.4795 287.367 51.2552 287.76 51.94C288.144 52.6351 288.707 53.2151 289.39 53.62C290.048 54.015 290.802 54.2225 291.57 54.22C292.356 54.2201 293.129 54.0131 293.81 53.62C294.493 53.2445 295.054 52.6826 295.43 52C295.817 51.3032 296.013 50.5168 296 49.72C296.015 49.1217 295.909 48.5265 295.689 47.9698C295.47 47.4132 295.14 46.9065 294.72 46.48C294.314 46.0603 293.825 45.729 293.285 45.507C292.744 45.285 292.164 45.1771 291.58 45.19V45.19Z" fill="#535B66"/>
<path d="M299.91 44.1H301.35V49.3C301.317 50.1814 301.384 51.0638 301.55 51.93C301.746 52.5893 302.163 53.1612 302.73 53.55C303.348 53.9293 304.06 54.1301 304.785 54.1301C305.51 54.1301 306.222 53.9293 306.84 53.55C307.387 53.1757 307.795 52.6307 308 52C308.194 51.1005 308.268 50.179 308.22 49.26V44.1H309.68V49.57C309.738 50.7538 309.558 51.9371 309.15 53.05C308.808 53.8098 308.243 54.4479 307.53 54.88C306.689 55.3141 305.756 55.5406 304.81 55.5406C303.864 55.5406 302.931 55.3141 302.09 54.88C301.36 54.4399 300.787 53.7825 300.45 53C300.032 51.8618 299.848 50.6509 299.91 49.44V44.1Z" fill="#535B66"/>
<path d="M312.34 39.79H313.77V48.6L318.94 44.1H321.05L314.92 49.42L321.41 55.25H319.41L313.79 50.25V55.25H312.36L312.34 39.79Z" fill="#535B66"/>
<path d="M101.33 78.25H103.54V82.25L106.66 78.25H109.29L105.29 83.38L109.7 89.74H107.1L103.56 84.64V89.74H101.35L101.33 78.25Z" fill="#6F7988"/>
<path d="M116.67 81.24H118.8V89.74H116.67V88.85C116.305 89.2069 115.878 89.4949 115.41 89.7C114.98 89.8799 114.516 89.9684 114.05 89.96C113.512 89.9614 112.98 89.849 112.489 89.6301C111.998 89.4112 111.559 89.0908 111.2 88.69C110.398 87.8288 109.967 86.6865 110 85.51C109.954 84.322 110.374 83.163 111.17 82.28C111.521 81.8748 111.956 81.5506 112.445 81.3296C112.933 81.1086 113.464 80.9962 114 81C114.494 80.9952 114.984 81.0904 115.44 81.28C115.902 81.4932 116.322 81.7879 116.68 82.15L116.67 81.24ZM114.42 83C114.113 82.9951 113.808 83.0549 113.526 83.1755C113.243 83.2961 112.989 83.4748 112.78 83.7C112.356 84.2059 112.124 84.8449 112.124 85.505C112.124 86.1651 112.356 86.8041 112.78 87.31C112.994 87.5335 113.251 87.7115 113.535 87.833C113.82 87.9546 114.126 88.0172 114.435 88.0172C114.744 88.0172 115.05 87.9546 115.335 87.833C115.619 87.7115 115.876 87.5335 116.09 87.31C116.541 86.81 116.778 86.1529 116.75 85.48C116.764 85.1513 116.713 84.8231 116.599 84.5142C116.486 84.2053 116.313 83.9218 116.09 83.68C115.875 83.4561 115.615 83.2799 115.327 83.1628C115.039 83.0457 114.73 82.9902 114.42 83V83Z" fill="#6F7988"/>
<path d="M121.37 78.11H123.5V81.24H124.77V83.08H123.5V89.74H121.37V83.08H120.28V81.24H121.37V78.11Z" fill="#6F7988"/>
<path d="M134.45 86.11H127.6C127.668 86.674 127.951 87.19 128.39 87.55C128.854 87.9214 129.436 88.1131 130.03 88.09C130.412 88.0958 130.792 88.0244 131.146 87.8801C131.5 87.7358 131.821 87.5214 132.09 87.25L133.88 88.1C133.474 88.6972 132.924 89.1822 132.28 89.51C131.58 89.825 130.818 89.9788 130.05 89.96C129.449 89.9826 128.851 89.8825 128.29 89.6659C127.73 89.4493 127.219 89.1206 126.79 88.7C126.375 88.2874 126.049 87.7941 125.833 87.2506C125.616 86.707 125.513 86.1249 125.53 85.54C125.512 84.9445 125.614 84.3516 125.831 83.7966C126.047 83.2416 126.374 82.736 126.79 82.31C127.192 81.8837 127.68 81.5468 128.221 81.3211C128.762 81.0954 129.344 80.986 129.93 81C130.534 80.975 131.137 81.0759 131.7 81.2962C132.263 81.5166 132.773 81.8516 133.2 82.28C133.627 82.7334 133.959 83.2681 134.175 83.8521C134.392 84.4362 134.488 85.0578 134.46 85.68L134.45 86.11ZM132.31 84.43C132.177 83.9613 131.883 83.5543 131.48 83.28C131.062 82.9771 130.556 82.8191 130.04 82.83C129.476 82.8206 128.925 82.9962 128.47 83.33C128.126 83.629 127.858 84.0062 127.69 84.43H132.31Z" fill="#6F7988"/>
<path d="M142.42 81.24H144.55V88.53C144.64 89.656 144.332 90.7779 143.68 91.7C143.236 92.1775 142.689 92.5486 142.081 92.7858C141.474 93.023 140.82 93.1201 140.17 93.07C139.457 93.0898 138.747 92.9849 138.07 92.76C137.527 92.5681 137.036 92.2521 136.637 91.8372C136.238 91.4222 135.941 90.9199 135.77 90.37H138.12C138.339 90.6126 138.613 90.798 138.92 90.91C139.296 91.0411 139.692 91.1054 140.09 91.1C140.565 91.1206 141.038 91.028 141.47 90.83C141.784 90.6855 142.044 90.4435 142.21 90.14C142.381 89.6767 142.452 89.1827 142.42 88.69C142.087 89.0345 141.69 89.3098 141.25 89.5C140.802 89.6655 140.327 89.7468 139.85 89.74C139.316 89.7446 138.786 89.6376 138.295 89.4258C137.804 89.214 137.363 88.9021 137 88.51C136.228 87.6227 135.809 86.4828 135.822 85.3067C135.834 84.1306 136.279 83.0002 137.07 82.13C137.423 81.7752 137.845 81.495 138.308 81.3061C138.772 81.1171 139.269 81.0232 139.77 81.03C140.246 81.0292 140.717 81.1173 141.16 81.29C141.644 81.5056 142.084 81.8072 142.46 82.18L142.42 81.24ZM140.21 83C139.902 82.9903 139.595 83.0449 139.309 83.1603C139.024 83.2756 138.765 83.4492 138.55 83.67C138.119 84.1389 137.879 84.7528 137.879 85.39C137.879 86.0272 138.119 86.6411 138.55 87.11C138.767 87.3346 139.028 87.5112 139.318 87.6284C139.607 87.7455 139.918 87.8006 140.23 87.79C140.534 87.7994 140.837 87.7456 141.119 87.632C141.401 87.5184 141.657 87.3474 141.87 87.13C142.283 86.6464 142.511 86.0312 142.511 85.395C142.511 84.7588 142.283 84.1435 141.87 83.66C141.653 83.443 141.393 83.2725 141.108 83.159C140.823 83.0455 140.517 82.9914 140.21 83V83Z" fill="#6F7988"/>
<path d="M150.74 81C151.533 80.9988 152.312 81.2057 153 81.6C153.691 81.9794 154.262 82.5439 154.65 83.23C155.047 83.9059 155.254 84.6762 155.25 85.46C155.253 86.2499 155.046 87.0264 154.65 87.71C154.263 88.4046 153.692 88.979 153 89.37C152.31 89.7661 151.526 89.9699 150.73 89.96C150.147 89.969 149.569 89.8583 149.03 89.6347C148.492 89.4111 148.005 89.0793 147.6 88.66C146.966 88.0377 146.532 87.2406 146.353 86.3704C146.174 85.5003 146.258 84.5965 146.595 83.7746C146.932 82.9526 147.506 82.2496 148.245 81.7554C148.983 81.2613 149.852 80.9983 150.74 81V81ZM150.74 83C150.432 82.9924 150.126 83.05 149.841 83.1689C149.557 83.2878 149.301 83.4654 149.09 83.69C148.667 84.1886 148.435 84.8212 148.435 85.475C148.435 86.1288 148.667 86.7613 149.09 87.26C149.307 87.4801 149.565 87.6549 149.85 87.7742C150.135 87.8935 150.441 87.955 150.75 87.955C151.059 87.955 151.365 87.8935 151.65 87.7742C151.935 87.6549 152.193 87.4801 152.41 87.26C152.84 86.7666 153.077 86.1343 153.077 85.48C153.077 84.8257 152.84 84.1934 152.41 83.7C152.201 83.4748 151.947 83.2961 151.664 83.1755C151.382 83.0549 151.077 82.9951 150.77 83H150.74Z" fill="#6F7988"/>
<path d="M156.75 81.24H158.58V82.31C158.74 81.9069 159.015 81.5594 159.37 81.31C159.685 81.095 160.059 80.9832 160.44 80.99C160.742 80.9951 161.039 81.0668 161.31 81.2L160.65 83.04C160.459 82.9342 160.248 82.8695 160.03 82.85C159.849 82.8668 159.677 82.9325 159.53 83.0399C159.384 83.1474 159.27 83.2926 159.2 83.46C158.913 84.2221 158.797 85.038 158.86 85.85V89.7H156.74L156.75 81.24Z" fill="#6F7988"/>
<path d="M163.43 77.74C163.616 77.7339 163.802 77.7673 163.974 77.838C164.146 77.9086 164.302 78.015 164.43 78.15C164.56 78.2814 164.663 78.4376 164.732 78.6094C164.8 78.7812 164.834 78.965 164.83 79.15C164.835 79.3351 164.802 79.5193 164.733 79.6913C164.664 79.8632 164.561 80.0193 164.43 80.15C164.302 80.2848 164.146 80.3903 163.974 80.4594C163.801 80.5284 163.616 80.5593 163.43 80.55C163.244 80.5561 163.058 80.5227 162.886 80.452C162.714 80.3814 162.558 80.275 162.43 80.14C162.299 80.0093 162.196 79.8532 162.127 79.6813C162.058 79.5093 162.025 79.3251 162.03 79.14C162.033 78.7818 162.175 78.4389 162.428 78.1847C162.68 77.9305 163.022 77.7852 163.38 77.78L163.43 77.74ZM162.37 81.24H164.5V89.74H162.37V81.24Z" fill="#6F7988"/>
<path d="M172.81 81.24H174.94V89.74H172.81V88.85C172.446 89.2043 172.023 89.492 171.56 89.7C171.126 89.879 170.66 89.9675 170.19 89.96C169.654 89.9626 169.123 89.8506 168.633 89.6316C168.143 89.4126 167.706 89.0916 167.35 88.69C166.949 88.2655 166.636 87.7662 166.428 87.2205C166.221 86.6748 166.123 86.0936 166.14 85.51C166.094 84.322 166.514 83.163 167.31 82.28C167.66 81.8761 168.093 81.5526 168.58 81.3317C169.067 81.1107 169.595 80.9976 170.13 81C170.624 80.9952 171.114 81.0904 171.57 81.28C172.034 81.4907 172.454 81.7857 172.81 82.15V81.24ZM170.57 83C170.261 82.9943 169.955 83.0537 169.67 83.1743C169.386 83.2949 169.13 83.474 168.92 83.7C168.48 84.1939 168.247 84.8387 168.27 85.5C168.257 85.8309 168.31 86.1611 168.425 86.4717C168.54 86.7823 168.715 87.0671 168.94 87.31C169.146 87.5372 169.398 87.7181 169.679 87.8405C169.96 87.9629 170.263 88.0241 170.57 88.02C170.882 88.0291 171.193 87.9714 171.481 87.8507C171.769 87.7299 172.028 87.549 172.24 87.32C172.691 86.82 172.928 86.1629 172.9 85.49C172.914 85.1613 172.863 84.8331 172.749 84.5242C172.636 84.2153 172.463 83.9318 172.24 83.69C172.026 83.4643 171.766 83.2863 171.478 83.1674C171.191 83.0485 170.881 82.9915 170.57 83V83Z" fill="#6F7988"/>
<path d="M185.31 78.25H187.53L192 89.74H189.73L188.83 87.38H184.14L183.21 89.74H180.93L185.31 78.25ZM186.44 81.25L184.9 85.19H188L186.44 81.25Z" fill="#6F7988"/>
</g>
<defs>
<linearGradient id="paint0_linear" x1="1.96001" y1="27.8" x2="46.12" y2="27.8" gradientUnits="userSpaceOnUse">
<stop stop-color="#D6D5C9"/>
<stop offset="1" stop-color="#4B5B88"/>
</linearGradient>
<linearGradient id="paint1_linear" x1="46.127" y1="49.8744" x2="90.2856" y2="5.71585" gradientUnits="userSpaceOnUse">
<stop stop-color="#53668D"/>
<stop offset="1" stop-color="#D6D5C9"/>
</linearGradient>
<linearGradient id="paint2_linear" x1="-129.913" y1="9846.37" x2="-2882.76" y2="12599.2" gradientUnits="userSpaceOnUse">
<stop stop-color="#53668D"/>
<stop offset="1" stop-color="#D6D5C9"/>
</linearGradient>
<linearGradient id="paint3_linear" x1="-170.11" y1="6649" x2="-2116.68" y2="6649" gradientUnits="userSpaceOnUse">
<stop stop-color="#D6D5C9"/>
<stop offset="1" stop-color="#4B5B88"/>
</linearGradient>
<clipPath id="clip0">
<rect width="430" height="100" fill="white"/>
</clipPath>
</defs>
</svg>
